<?xml version="1.0" encoding="utf-8"?>
<!-- Generated by Mocodo 4.1.2 -->
<svg width="840" height="306" viewBox="0 0 840 306" xmlns="http://www.w3.org/2000/svg">
<rect x="0" y="0" width="840" height="306" fill="#ffffbf" stroke="none" stroke-width="0"/>

<!-- Association HAS -->
<g>
	<line x1="154" y1="77" x2="245" y2="77" stroke="#74add1" stroke-width="2"/>
	<line x1="639" y1="221" x2="245" y2="77" stroke="#74add1" stroke-width="2"/>
	<polygon points="561 192.49 547.67 194.01 553.49 189.75 551.79 182.74" fill="#74add1" stroke-width="0"/>
	<g>
		<path d="M250 52 a14 14 90 0 1 14 14 V77 h-38 V66 a14 14 90 0 1 14 -14" fill="#abd9e9" stroke="#abd9e9" stroke-width="0"/>
		<path d="M264 77 v11 a14 14 90 0 1 -14 14 H240 a14 14 90 0 1 -14 -14 V77 H38" fill="#e0f3f8" stroke="#e0f3f8" stroke-width="0"/>
		<rect x="226" y="52" width="38" height="50" fill="none" rx="14" stroke="#74add1" stroke-width="2"/>
		<line x1="226" y1="77" x2="264" y2="77" stroke="#74add1" stroke-width="1"/>
		<text x="234" y="69.75" fill="#000000" font-family="Verdana" font-size="12">Has</text>
	</g>
	<text x="199" y="94" fill="#d73027" font-family="Verdana" font-size="12">0,N</text>
	<text x="534" y="206.64" fill="#d73027" font-family="Verdana" font-size="12">0,N</text>
</g>

<!-- Association ADD -->
<g>
	<line x1="432" y1="77" x2="529" y2="77" stroke="#74add1" stroke-width="2"/>
	<line x1="639" y1="221" x2="529" y2="77" stroke="#74add1" stroke-width="2"/>
	<polygon points="580.94 145 568.89 139.11 576.09 138.64 578.43 131.82" fill="#74add1" stroke-width="0"/>
	<g>
		<path d="M534 52 a14 14 90 0 1 14 14 V77 h-38 V66 a14 14 90 0 1 14 -14" fill="#abd9e9" stroke="#abd9e9" stroke-width="0"/>
		<path d="M548 77 v11 a14 14 90 0 1 -14 14 H524 a14 14 90 0 1 -14 -14 V77 H38" fill="#e0f3f8" stroke="#e0f3f8" stroke-width="0"/>
		<rect x="510" y="52" width="38" height="50" fill="none" rx="14" stroke="#74add1" stroke-width="2"/>
		<line x1="510" y1="77" x2="548" y2="77" stroke="#74add1" stroke-width="1"/>
		<text x="517" y="69.75" fill="#000000" font-family="Verdana" font-size="12">Add</text>
	</g>
	<text x="483" y="69" fill="#d73027" font-family="Verdana" font-size="12">0,1</text>
	<text x="580.2" y="137" fill="#d73027" font-family="Verdana" font-size="12">0,N</text>
</g>

<!-- Association TO -->
<g>
	<line x1="58" y1="221" x2="154" y2="221" stroke="#74add1" stroke-width="2"/>
	<line x1="432" y1="77" x2="154" y2="221" stroke="#74add1" stroke-width="2"/>
	<polygon points="386 100.83 378.1 111.67 378.9 104.51 372.58 101.02" fill="#74add1" stroke-width="0"/>
	<g>
		<path d="M155 196 a14 14 90 0 1 14 14 V221 h-30 V210 a14 14 90 0 1 14 -14" fill="#abd9e9" stroke="#abd9e9" stroke-width="0"/>
		<path d="M169 221 v11 a14 14 90 0 1 -14 14 H153 a14 14 90 0 1 -14 -14 V221 H30" fill="#e0f3f8" stroke="#e0f3f8" stroke-width="0"/>
		<rect x="139" y="196" width="30" height="50" fill="none" rx="14" stroke="#74add1" stroke-width="2"/>
		<line x1="139" y1="221" x2="169" y2="221" stroke="#74add1" stroke-width="1"/>
		<text x="146" y="213.75" fill="#000000" font-family="Verdana" font-size="12">To</text>
	</g>
	<text x="112" y="238" fill="#d73027" font-family="Verdana" font-size="12">1,N</text>
	<text x="359" y="96.87" fill="#d73027" font-family="Verdana" font-size="12">1,N</text>
</g>

<!-- Association VERS_LINFINI -->
<g>
	<line x1="317" y1="221" x2="432" y2="221" stroke="#74add1" stroke-width="2"/>
	<line x1="432" y1="77" x2="432" y2="221" stroke="#74add1" stroke-width="2"/>
	<polygon points="432 145 438 157 432 153 426 157" fill="#74add1" stroke-width="0"/>
	<g>
		<path d="M461 196 a14 14 90 0 1 14 14 V221 h-86 V210 a14 14 90 0 1 14 -14" fill="#abd9e9" stroke="#abd9e9" stroke-width="0"/>
		<path d="M475 221 v11 a14 14 90 0 1 -14 14 H403 a14 14 90 0 1 -14 -14 V221 H86" fill="#e0f3f8" stroke="#e0f3f8" stroke-width="0"/>
		<rect x="389" y="196" width="86" height="50" fill="none" rx="14" stroke="#74add1" stroke-width="2"/>
		<line x1="389" y1="221" x2="475" y2="221" stroke="#74add1" stroke-width="1"/>
		<text x="397" y="213.75" fill="#000000" font-family="Verdana" font-size="12">Vers_Linfini</text>
	</g>
	<text x="362" y="238" fill="#d73027" font-family="Verdana" font-size="12">0,N</text>
	<text x="437" y="162" fill="#d73027" font-family="Verdana" font-size="12">1,N</text>
</g>

<!-- Association ET_LAUDELA -->
<g>
	<line x1="639" y1="221" x2="790" y2="221" stroke="#74add1" stroke-width="2"/>
	<line x1="432" y1="77" x2="790" y2="221" stroke="#74add1" stroke-width="2"/>
	<polygon points="478 95.5 491.37 94.41 485.42 98.49 486.89 105.55" fill="#74add1" stroke-width="0"/>
	<g>
		<path d="M817 196 a14 14 90 0 1 14 14 V221 h-82 V210 a14 14 90 0 1 14 -14" fill="#abd9e9" stroke="#abd9e9" stroke-width="0"/>
		<path d="M831 221 v11 a14 14 90 0 1 -14 14 H763 a14 14 90 0 1 -14 -14 V221 H82" fill="#e0f3f8" stroke="#e0f3f8" stroke-width="0"/>
		<rect x="749" y="196" width="82" height="50" fill="none" rx="14" stroke="#74add1" stroke-width="2"/>
		<line x1="749" y1="221" x2="831" y2="221" stroke="#74add1" stroke-width="1"/>
		<text x="756" y="213.75" fill="#000000" font-family="Verdana" font-size="12">Et_Laudela</text>
	</g>
	<text x="722" y="238" fill="#d73027" font-family="Verdana" font-size="12">0,N</text>
	<text x="483" y="90.65" fill="#d73027" font-family="Verdana" font-size="12">0,N</text>
</g>

<!-- Entity USERS -->
<g>
	<g>
		<rect x="114" y="18" width="80" height="25" fill="#fdae61" stroke="none" stroke-width="0" opacity="1"/>
		<rect x="114" y="43" width="80" height="93" fill="#fee090" stroke="none" stroke-width="0" opacity="1"/>
		<rect x="114" y="18" width="80" height="118" fill="none" stroke="#f46d43" stroke-width="2" opacity="1"/>
		<line x1="114" y1="43" x2="194" y2="43" stroke="#f46d43" stroke-width="1"/>
	</g>
	<text x="137" y="35.75" fill="#000000" font-family="Verdana" font-size="12">Users</text>
	<text x="119" y="60.8" fill="#000000" font-family="Verdana" font-size="12">num_user</text>
	<line x1="119" y1="63" x2="181" y2="63" stroke="#000000" stroke-width="1"/>
	<text x="119" y="77.8" fill="#000000" font-family="Verdana" font-size="12">name</text>
	<text x="119" y="94.8" fill="#000000" font-family="Verdana" font-size="12">password</text>
	<text x="119" y="111.8" fill="#000000" font-family="Verdana" font-size="12">created_at</text>
	<text x="119" y="128.8" fill="#000000" font-family="Verdana" font-size="12">updated_at</text>
</g>

<!-- Entity PRODUCTS -->
<g>
	<g>
		<rect x="386" y="9" width="92" height="25" fill="#fdae61" stroke="none" stroke-width="0" opacity="1"/>
		<rect x="386" y="34" width="92" height="111" fill="#fee090" stroke="none" stroke-width="0" opacity="1"/>
		<rect x="386" y="9" width="92" height="136" fill="none" stroke="#f46d43" stroke-width="2" opacity="1"/>
		<line x1="386" y1="34" x2="478" y2="34" stroke="#f46d43" stroke-width="1"/>
	</g>
	<text x="406" y="26.75" fill="#000000" font-family="Verdana" font-size="12">Products</text>
	<text x="391" y="51.8" fill="#000000" font-family="Verdana" font-size="12">num_product</text>
	<line x1="391" y1="54" x2="472" y2="54" stroke="#000000" stroke-width="1"/>
	<text x="391" y="68.8" fill="#000000" font-family="Verdana" font-size="12">name</text>
	<text x="391" y="85.8" fill="#000000" font-family="Verdana" font-size="12">quantity</text>
	<text x="391" y="102.8" fill="#000000" font-family="Verdana" font-size="12">status</text>
	<text x="391" y="119.8" fill="#000000" font-family="Verdana" font-size="12">created_at</text>
	<text x="391" y="136.8" fill="#000000" font-family="Verdana" font-size="12">updated_at</text>
</g>

<!-- Entity CATEGORIES -->
<g>
	<g>
		<rect x="9" y="170" width="98" height="25" fill="#fdae61" stroke="none" stroke-width="0" opacity="1"/>
		<rect x="9" y="195" width="98" height="77" fill="#fee090" stroke="none" stroke-width="0" opacity="1"/>
		<rect x="9" y="170" width="98" height="102" fill="none" stroke="#f46d43" stroke-width="2" opacity="1"/>
		<line x1="9" y1="195" x2="107" y2="195" stroke="#f46d43" stroke-width="1"/>
	</g>
	<text x="26" y="187.75" fill="#000000" font-family="Verdana" font-size="12">Categories</text>
	<text x="14" y="212.8" fill="#000000" font-family="Verdana" font-size="12">num_category</text>
	<line x1="14" y1="215" x2="102" y2="215" stroke="#000000" stroke-width="1"/>
	<text x="14" y="229.8" fill="#000000" font-family="Verdana" font-size="12">name</text>
	<text x="14" y="246.8" fill="#000000" font-family="Verdana" font-size="12">created_at</text>
	<text x="14" y="263.8" fill="#000000" font-family="Verdana" font-size="12">updated_at</text>
</g>

<!-- Entity TAGS -->
<g>
	<g>
		<rect x="277" y="170" width="80" height="25" fill="#fdae61" stroke="none" stroke-width="0" opacity="1"/>
		<rect x="277" y="195" width="80" height="77" fill="#fee090" stroke="none" stroke-width="0" opacity="1"/>
		<rect x="277" y="170" width="80" height="102" fill="none" stroke="#f46d43" stroke-width="2" opacity="1"/>
		<line x1="277" y1="195" x2="357" y2="195" stroke="#f46d43" stroke-width="1"/>
	</g>
	<text x="303" y="187.75" fill="#000000" font-family="Verdana" font-size="12">Tags</text>
	<text x="282" y="212.8" fill="#000000" font-family="Verdana" font-size="12">num_tag</text>
	<line x1="282" y1="215" x2="337" y2="215" stroke="#000000" stroke-width="1"/>
	<text x="282" y="229.8" fill="#000000" font-family="Verdana" font-size="12">name</text>
	<text x="282" y="246.8" fill="#000000" font-family="Verdana" font-size="12">created_at</text>
	<text x="282" y="263.8" fill="#000000" font-family="Verdana" font-size="12">updated_at</text>
</g>

<!-- Entity ORDERS -->
<g>
	<g>
		<rect x="561" y="145" width="156" height="25" fill="#fdae61" stroke="none" stroke-width="0" opacity="1"/>
		<rect x="561" y="170" width="156" height="127" fill="#fee090" stroke="none" stroke-width="0" opacity="1"/>
		<rect x="561" y="145" width="156" height="152" fill="none" stroke="#f46d43" stroke-width="2" opacity="1"/>
		<line x1="561" y1="170" x2="717" y2="170" stroke="#f46d43" stroke-width="1"/>
	</g>
	<text x="618" y="162.75" fill="#000000" font-family="Verdana" font-size="12">Orders</text>
	<text x="566" y="187.8" fill="#000000" font-family="Verdana" font-size="12">num_order</text>
	<line x1="566" y1="190" x2="634" y2="190" stroke="#000000" stroke-width="1"/>
	<text x="566" y="204.8" fill="#000000" font-family="Verdana" font-size="12">XX_Entité_1_propriété1</text>
	<text x="566" y="221.8" fill="#000000" font-family="Verdana" font-size="12">XX_Entité_2_propriété2</text>
	<text x="566" y="238.8" fill="#000000" font-family="Verdana" font-size="12">num_invoice</text>
	<text x="566" y="255.8" fill="#000000" font-family="Verdana" font-size="12">status</text>
	<text x="566" y="272.8" fill="#000000" font-family="Verdana" font-size="12">created_at</text>
	<text x="566" y="289.8" fill="#000000" font-family="Verdana" font-size="12">updated_at</text>
</g>
</svg>